<svg width="45" height="45" viewBox="0 0 45 45" fill="none" xmlns="http://www.w3.org/2000/svg">
<circle cx="22.5" cy="22.5" r="21.5" stroke="#1B1B1B" stroke-width="2"/>
<path d="M15.7863 21.5C15.7863 17.9366 18.7659 15 22.5014 15V13C17.7151 13 13.7863 16.7791 13.7863 21.5H15.7863ZM22.5014 15C26.2369 15 29.2165 17.9366 29.2165 21.5H31.2165C31.2165 16.7791 27.2878 13 22.5014 13V15ZM10 39.3125C10 34.2473 13.2069 29.8872 17.7914 28.0773L17.057 26.217C11.7605 28.308 8 33.3719 8 39.3125H10ZM22.5014 28C20.8004 28 19.2524 27.3891 18.072 26.3853L16.7764 27.909C18.3095 29.2127 20.3141 30 22.5014 30V28ZM18.072 26.3853C16.6649 25.1888 15.7863 23.4411 15.7863 21.5H13.7863C13.7863 24.0631 14.95 26.356 16.7764 27.909L18.072 26.3853ZM29.2165 21.5C29.2165 23.4411 28.338 25.1888 26.9309 26.3853L28.2265 27.909C30.0528 26.356 31.2165 24.0631 31.2165 21.5H29.2165ZM26.9309 26.3853C25.7505 27.3891 24.2025 28 22.5014 28V30C24.6888 30 26.6934 29.2127 28.2265 27.909L26.9309 26.3853ZM27.2115 28.0773C31.7197 29.8571 34.8958 34.1032 35.0002 39.0596L36.9998 39.0175C36.8773 33.204 33.1543 28.2733 27.9459 26.217L27.2115 28.0773Z" fill="#1B1B1B"/>
</svg>
