<svg width="123" height="54" viewBox="0 0 123 54" fill="none" xmlns="http://www.w3.org/2000/svg">
<path d="M63.3 26.5002V27.5002C63.3 27.6002 63.4 27.6002 63.5 27.6002C64.5 26.6002 65.5 26.2002 66.8 26.2002C68.2 26.2002 69.3 26.8002 70.2 28.1002C70.2 28.2002 70.3 28.2002 70.4 28.1002C71.5 26.8002 72.8 26.2002 74.4 26.2002C75.8 26.2002 76.9 26.7002 77.7 27.6002C78.5 28.5002 78.9 29.9002 78.9 31.6002V38.6002C78.9 38.7002 78.9 38.7002 78.8 38.7002H76.9C76.8 38.7002 76.8 38.7002 76.8 38.6002V31.8002C76.8 29.3002 75.9 28.1002 74.2 28.1002C72.1 28.1002 71.1 29.3002 71.1 31.9002V38.6002C71.1 38.7002 71.1 38.7002 71 38.7002H69.1C69 38.7002 69 38.7002 69 38.6002V31.8002C69 29.3002 68.1 28.1002 66.4 28.1002C64.3 28.1002 63.3 29.3002 63.3 31.9002V38.6002C63.3 38.7002 63.3 38.7002 63.2 38.7002H61.3C61.2 38.7002 61.2 38.7002 61.2 38.6002V26.5002C61.2 26.4002 61.2 26.4002 61.3 26.4002H63.2C63.2 26.4002 63.3 26.5002 63.3 26.5002Z" fill="#57B073"/>
<path d="M99 38.6996H97.1C97 38.6996 97 38.6996 97 38.5996V26.4996C97 26.3996 97 26.3996 97.1 26.3996H99C99.1 26.3996 99.1 26.3996 99.1 26.4996V27.4996C99.1 27.5996 99.2 27.5996 99.3 27.5996C100.3 26.5996 101.5 26.0996 102.8 26.0996C105.6 26.0996 107.4 27.9996 107.4 31.4996V38.4996C107.4 38.5996 107.4 38.5996 107.3 38.5996H105.3C105.2 38.5996 105.2 38.5996 105.2 38.4996V31.6996C105.2 29.1996 104.4 27.9996 102.4 27.9996C100.2 27.9996 99.1 29.2996 99.1 31.7996V38.4996C99.1 38.6996 99.1 38.6996 99 38.6996Z" fill="#57B073"/>
<path d="M87.8 26C84.2 26 81.2 28.9 81.2 32.6C81.2 36.2 84.1 39.2 87.8 39.2C91.4 39.2 94.4 36.3 94.4 32.6C94.4 28.9 91.4 26 87.8 26ZM87.8 37.1C85.3 37.1 83.2 35.1 83.2 32.5C83.2 30 85.2 27.9 87.8 27.9C90.3 27.9 92.4 29.9 92.4 32.5C92.4 35.1 90.3 37.1 87.8 37.1Z" fill="#57B073"/>
<path d="M121 28.1C120.9 28.1 120.9 28 121 28.1C119.7 26.8 118.1 26 116.2 26C112.4 26 109.4 29.2 109.7 33C109.9 36.3 112.6 38.9 115.8 39.1C117.8 39.2 119.6 38.4 120.9 37.1L121 37C122.1 35.8 122.8 34.3 122.8 32.5C122.8 30.7 122.1 29.3 121 28.1ZM120.7 33C120.5 35.1 118.8 36.9 116.6 37.1C113.7 37.4 111.3 35 111.6 32.1C111.8 30 113.5 28.2 115.7 28C118.6 27.7 121 30.1 120.7 33Z" fill="#57B073"/>
<path d="M123 26.5004V38.7004C123 38.8004 123 38.8004 122.9 38.8004H121C120.9 38.8004 120.9 38.8004 120.9 38.7004V26.5004C120.9 26.4004 120.9 26.4004 121 26.4004H122.9C123 26.4004 123 26.4004 123 26.5004Z" fill="#57B073"/>
<path d="M121 28V28.1C120.9 28.1 120.9 28 121 28C120.9 28 120.9 28 121 28C121 28 120.9 28 121 28Z" fill="#57B073"/>
<path d="M121 37V37.1C121 37.1 120.9 37.1 121 37C120.9 37.1 120.9 37.1 121 37C120.9 37.1 120.9 37.1 121 37Z" fill="#57B073"/>
<path d="M26.6 28.0004C27.318 28.0004 27.9 27.4184 27.9 26.7004C27.9 25.9824 27.318 25.4004 26.6 25.4004C25.882 25.4004 25.3 25.9824 25.3 26.7004C25.3 27.4184 25.882 28.0004 26.6 28.0004Z" fill="#57B073"/>
<path d="M27.4 24.3002C28.118 24.3002 28.7 23.7182 28.7 23.0002C28.7 22.2822 28.118 21.7002 27.4 21.7002C26.682 21.7002 26.1 22.2822 26.1 23.0002C26.1 23.7182 26.682 24.3002 27.4 24.3002Z" fill="#57B073"/>
<path d="M30 26.3998C30.718 26.3998 31.3 25.8178 31.3 25.0998C31.3 24.3819 30.718 23.7998 30 23.7998C29.282 23.7998 28.7 24.3819 28.7 25.0998C28.7 25.8178 29.282 26.3998 30 26.3998Z" fill="#57B073"/>
<path d="M30 29.6C30.718 29.6 31.3 29.018 31.3 28.3C31.3 27.582 30.718 27 30 27C29.282 27 28.7 27.582 28.7 28.3C28.7 29.018 29.282 29.6 30 29.6Z" fill="#57B073"/>
<path d="M27.4 31.6C28.118 31.6 28.7 31.018 28.7 30.3C28.7 29.582 28.118 29 27.4 29C26.682 29 26.1 29.582 26.1 30.3C26.1 31.018 26.682 31.6 27.4 31.6Z" fill="#57B073"/>
<path d="M24.3 30.8998C25.018 30.8998 25.6 30.3178 25.6 29.5998C25.6 28.8819 25.018 28.2998 24.3 28.2998C23.582 28.2998 23 28.8819 23 29.5998C23 30.3178 23.582 30.8998 24.3 30.8998Z" fill="#57B073"/>
<path d="M22.9 28.0004C23.618 28.0004 24.2 27.4184 24.2 26.7004C24.2 25.9824 23.618 25.4004 22.9 25.4004C22.182 25.4004 21.6 25.9824 21.6 26.7004C21.6 27.4184 22.182 28.0004 22.9 28.0004Z" fill="#57B073"/>
<path d="M24.3 25.1C25.018 25.1 25.6 24.518 25.6 23.8C25.6 23.082 25.018 22.5 24.3 22.5C23.582 22.5 23 23.082 23 23.8C23 24.518 23.582 25.1 24.3 25.1Z" fill="#57B073"/>
<path d="M23.3 22.0004C24.018 22.0004 24.6 21.4184 24.6 20.7004C24.6 19.9824 24.018 19.4004 23.3 19.4004C22.582 19.4004 22 19.9824 22 20.7004C22 21.4184 22.582 22.0004 23.3 22.0004Z" fill="#57B073"/>
<path d="M26.7 21.1C27.418 21.1 28 20.518 28 19.8C28 19.082 27.418 18.5 26.7 18.5C25.982 18.5 25.4 19.082 25.4 19.8C25.4 20.518 25.982 21.1 26.7 21.1Z" fill="#57B073"/>
<path d="M30.1 22.1C30.818 22.1 31.4 21.518 31.4 20.8C31.4 20.082 30.818 19.5 30.1 19.5C29.382 19.5 28.8 20.082 28.8 20.8C28.8 21.518 29.382 22.1 30.1 22.1Z" fill="#57B073"/>
<path d="M32.6 24.6996C33.318 24.6996 33.9 24.1176 33.9 23.3996C33.9 22.6816 33.318 22.0996 32.6 22.0996C31.882 22.0996 31.3 22.6816 31.3 23.3996C31.3 24.1176 31.882 24.6996 32.6 24.6996Z" fill="#57B073"/>
<path d="M33.5 28.1C34.218 28.1 34.8 27.518 34.8 26.8C34.8 26.082 34.218 25.5 33.5 25.5C32.782 25.5 32.2 26.082 32.2 26.8C32.2 27.518 32.782 28.1 33.5 28.1Z" fill="#57B073"/>
<path d="M32.5 31.5004C33.218 31.5004 33.8 30.9184 33.8 30.2004C33.8 29.4824 33.218 28.9004 32.5 28.9004C31.782 28.9004 31.2 29.4824 31.2 30.2004C31.2 30.9184 31.782 31.5004 32.5 31.5004Z" fill="#57B073"/>
<path d="M29.9 34.0004C30.618 34.0004 31.2 33.4184 31.2 32.7004C31.2 31.9824 30.618 31.4004 29.9 31.4004C29.182 31.4004 28.6 31.9824 28.6 32.7004C28.6 33.4184 29.182 34.0004 29.9 34.0004Z" fill="#57B073"/>
<path d="M26.4 34.8002C27.118 34.8002 27.7 34.2182 27.7 33.5002C27.7 32.7822 27.118 32.2002 26.4 32.2002C25.682 32.2002 25.1 32.7822 25.1 33.5002C25.1 34.2182 25.682 34.8002 26.4 34.8002Z" fill="#57B073"/>
<path d="M23 33.8002C23.718 33.8002 24.3 33.2182 24.3 32.5002C24.3 31.7822 23.718 31.2002 23 31.2002C22.282 31.2002 21.7 31.7822 21.7 32.5002C21.7 33.2182 22.282 33.8002 23 33.8002Z" fill="#57B073"/>
<path d="M20.6 31.1996C21.318 31.1996 21.9 30.6176 21.9 29.8996C21.9 29.1816 21.318 28.5996 20.6 28.5996C19.882 28.5996 19.3 29.1816 19.3 29.8996C19.3 30.6176 19.882 31.1996 20.6 31.1996Z" fill="#57B073"/>
<path d="M19.8 27.8002C20.518 27.8002 21.1 27.2182 21.1 26.5002C21.1 25.7822 20.518 25.2002 19.8 25.2002C19.082 25.2002 18.5 25.7822 18.5 26.5002C18.5 27.2182 19.082 27.8002 19.8 27.8002Z" fill="#57B073"/>
<path d="M20.8 24.3998C21.518 24.3998 22.1 23.8178 22.1 23.0998C22.1 22.3819 21.518 21.7998 20.8 21.7998C20.082 21.7998 19.5 22.3819 19.5 23.0998C19.5 23.8178 20.082 24.3998 20.8 24.3998Z" fill="#57B073"/>
<path d="M24.4 18.0004C25.118 18.0004 25.7 17.4184 25.7 16.7004C25.7 15.9824 25.118 15.4004 24.4 15.4004C23.682 15.4004 23.1 15.9824 23.1 16.7004C23.1 17.4184 23.682 18.0004 24.4 18.0004Z" fill="#57B073"/>
<path d="M27.9 17.8998C28.618 17.8998 29.2 17.3178 29.2 16.5998C29.2 15.8819 28.618 15.2998 27.9 15.2998C27.182 15.2998 26.6 15.8819 26.6 16.5998C26.6 17.3178 27.182 17.8998 27.9 17.8998Z" fill="#57B073"/>
<path d="M31.3 18.8998C32.018 18.8998 32.6 18.3178 32.6 17.5998C32.6 16.8819 32.018 16.2998 31.3 16.2998C30.582 16.2998 30 16.8819 30 17.5998C30 18.3178 30.582 18.8998 31.3 18.8998Z" fill="#57B073"/>
<path d="M34.1 21.1C34.818 21.1 35.4 20.518 35.4 19.8C35.4 19.082 34.818 18.5 34.1 18.5C33.382 18.5 32.8 19.082 32.8 19.8C32.8 20.518 33.382 21.1 34.1 21.1Z" fill="#57B073"/>
<path d="M36 24.0004C36.718 24.0004 37.3 23.4184 37.3 22.7004C37.3 21.9824 36.718 21.4004 36 21.4004C35.282 21.4004 34.7 21.9824 34.7 22.7004C34.7 23.4184 35.282 24.0004 36 24.0004Z" fill="#57B073"/>
<path d="M36.8 27.5004C37.518 27.5004 38.1 26.9184 38.1 26.2004C38.1 25.4824 37.518 24.9004 36.8 24.9004C36.082 24.9004 35.5 25.4824 35.5 26.2004C35.5 26.9184 36.082 27.5004 36.8 27.5004Z" fill="#57B073"/>
<path d="M36.3 31.0004C37.018 31.0004 37.6 30.4184 37.6 29.7004C37.6 28.9824 37.018 28.4004 36.3 28.4004C35.582 28.4004 35 28.9824 35 29.7004C35 30.4184 35.582 31.0004 36.3 31.0004Z" fill="#57B073"/>
<path d="M34.7 34.1C35.418 34.1 36 33.518 36 32.8C36 32.082 35.418 31.5 34.7 31.5C33.982 31.5 33.4 32.082 33.4 32.8C33.4 33.518 33.982 34.1 34.7 34.1Z" fill="#57B073"/>
<path d="M32.1 36.5004C32.818 36.5004 33.4 35.9184 33.4 35.2004C33.4 34.4824 32.818 33.9004 32.1 33.9004C31.382 33.9004 30.8 34.4824 30.8 35.2004C30.8 35.9184 31.382 36.5004 32.1 36.5004Z" fill="#57B073"/>
<path d="M28.8 37.8998C29.518 37.8998 30.1 37.3178 30.1 36.5998C30.1 35.8819 29.518 35.2998 28.8 35.2998C28.082 35.2998 27.5 35.8819 27.5 36.5998C27.5 37.3178 28.082 37.8998 28.8 37.8998Z" fill="#57B073"/>
<path d="M25.3 38.1C26.018 38.1 26.6 37.518 26.6 36.8C26.6 36.082 26.018 35.5 25.3 35.5C24.582 35.5 24 36.082 24 36.8C24 37.518 24.582 38.1 25.3 38.1Z" fill="#57B073"/>
<path d="M21.9 37.0004C22.618 37.0004 23.2 36.4184 23.2 35.7004C23.2 34.9824 22.618 34.4004 21.9 34.4004C21.182 34.4004 20.6 34.9824 20.6 35.7004C20.6 36.4184 21.182 37.0004 21.9 37.0004Z" fill="#57B073"/>
<path d="M19.1 34.8998C19.818 34.8998 20.4 34.3178 20.4 33.5998C20.4 32.8819 19.818 32.2998 19.1 32.2998C18.382 32.2998 17.8 32.8819 17.8 33.5998C17.8 34.3178 18.382 34.8998 19.1 34.8998Z" fill="#57B073"/>
<path d="M17.2 31.8998C17.918 31.8998 18.5 31.3178 18.5 30.5998C18.5 29.8819 17.918 29.2998 17.2 29.2998C16.482 29.2998 15.9 29.8819 15.9 30.5998C15.9 31.3178 16.482 31.8998 17.2 31.8998Z" fill="#57B073"/>
<path d="M16.4 28.3998C17.118 28.3998 17.7 27.8178 17.7 27.0998C17.7 26.3819 17.118 25.7998 16.4 25.7998C15.682 25.7998 15.1 26.3819 15.1 27.0998C15.1 27.8178 15.682 28.3998 16.4 28.3998Z" fill="#57B073"/>
<path d="M16.9 24.8998C17.618 24.8998 18.2 24.3178 18.2 23.5998C18.2 22.8819 17.618 22.2998 16.9 22.2998C16.182 22.2998 15.6 22.8819 15.6 23.5998C15.6 24.3178 16.182 24.8998 16.9 24.8998Z" fill="#57B073"/>
<path d="M18.5 21.8002C19.218 21.8002 19.8 21.2182 19.8 20.5002C19.8 19.7822 19.218 19.2002 18.5 19.2002C17.782 19.2002 17.2 19.7822 17.2 20.5002C17.2 21.2182 17.782 21.8002 18.5 21.8002Z" fill="#57B073"/>
<path d="M21.1 19.3998C21.818 19.3998 22.4 18.8178 22.4 18.0998C22.4 17.3819 21.818 16.7998 21.1 16.7998C20.382 16.7998 19.8 17.3819 19.8 18.0998C19.8 18.8178 20.382 19.3998 21.1 19.3998Z" fill="#57B073"/>
<path d="M35.4 18.0004C36.118 18.0004 36.7 17.4184 36.7 16.7004C36.7 15.9824 36.118 15.4004 35.4 15.4004C34.682 15.4004 34.1 15.9824 34.1 16.7004C34.1 17.4184 34.682 18.0004 35.4 18.0004Z" fill="#57B073"/>
<path d="M38.4 17.1996C39.118 17.1996 39.7 16.6176 39.7 15.8996C39.7 15.1816 39.118 14.5996 38.4 14.5996C37.682 14.5996 37.1 15.1816 37.1 15.8996C37.1 16.6176 37.682 17.1996 38.4 17.1996Z" fill="#57B073"/>
<path d="M41.6 17.1C42.318 17.1 42.9 16.518 42.9 15.8C42.9 15.082 42.318 14.5 41.6 14.5C40.882 14.5 40.3 15.082 40.3 15.8C40.3 16.518 40.882 17.1 41.6 17.1Z" fill="#57B073"/>
<path d="M44.7 17.8002C45.418 17.8002 46 17.2182 46 16.5002C46 15.7822 45.418 15.2002 44.7 15.2002C43.982 15.2002 43.4 15.7822 43.4 16.5002C43.4 17.2182 43.982 17.8002 44.7 17.8002Z" fill="#57B073"/>
<path d="M47.5 19.1996C48.218 19.1996 48.8 18.6176 48.8 17.8996C48.8 17.1816 48.218 16.5996 47.5 16.5996C46.782 16.5996 46.2 17.1816 46.2 17.8996C46.2 18.6176 46.782 19.1996 47.5 19.1996Z" fill="#57B073"/>
<path d="M49.9 21.3002C50.618 21.3002 51.2 20.7182 51.2 20.0002C51.2 19.2822 50.618 18.7002 49.9 18.7002C49.182 18.7002 48.6 19.2822 48.6 20.0002C48.6 20.7182 49.182 21.3002 49.9 21.3002Z" fill="#57B073"/>
<path d="M37.6 20.6C38.318 20.6 38.9 20.018 38.9 19.3C38.9 18.582 38.318 18 37.6 18C36.882 18 36.3 18.582 36.3 19.3C36.3 20.018 36.882 20.6 37.6 20.6Z" fill="#57B073"/>
<path d="M40.8 20.6C41.518 20.6 42.1 20.018 42.1 19.3C42.1 18.582 41.518 18 40.8 18C40.082 18 39.5 18.582 39.5 19.3C39.5 20.018 40.082 20.6 40.8 20.6Z" fill="#57B073"/>
<path d="M43.9 21.3002C44.618 21.3002 45.2 20.7182 45.2 20.0002C45.2 19.2822 44.618 18.7002 43.9 18.7002C43.182 18.7002 42.6 19.2822 42.6 20.0002C42.6 20.7182 43.182 21.3002 43.9 21.3002Z" fill="#57B073"/>
<path d="M46.7 22.8002C47.418 22.8002 48 22.2182 48 21.5002C48 20.7822 47.418 20.2002 46.7 20.2002C45.982 20.2002 45.4 20.7822 45.4 21.5002C45.4 22.2182 45.982 22.8002 46.7 22.8002Z" fill="#57B073"/>
<path d="M49.1 24.8998C49.818 24.8998 50.4 24.3178 50.4 23.5998C50.4 22.8819 49.818 22.2998 49.1 22.2998C48.382 22.2998 47.8 22.8819 47.8 23.5998C47.8 24.3178 48.382 24.8998 49.1 24.8998Z" fill="#57B073"/>
<path d="M50.8 27.5004C51.518 27.5004 52.1 26.9184 52.1 26.2004C52.1 25.4824 51.518 24.9004 50.8 24.9004C50.082 24.9004 49.5 25.4824 49.5 26.2004C49.5 26.9184 50.082 27.5004 50.8 27.5004Z" fill="#57B073"/>
<path d="M51.9 30.5004C52.618 30.5004 53.2 29.9184 53.2 29.2004C53.2 28.4824 52.618 27.9004 51.9 27.9004C51.182 27.9004 50.6 28.4824 50.6 29.2004C50.6 29.9184 51.182 30.5004 51.9 30.5004Z" fill="#57B073"/>
<path d="M39.2 23.6996C39.918 23.6996 40.5 23.1176 40.5 22.3996C40.5 21.6816 39.918 21.0996 39.2 21.0996C38.482 21.0996 37.9 21.6816 37.9 22.3996C37.9 23.1176 38.482 23.6996 39.2 23.6996Z" fill="#57B073"/>
<path d="M42.2 24.5004C42.918 24.5004 43.5 23.9184 43.5 23.2004C43.5 22.4824 42.918 21.9004 42.2 21.9004C41.482 21.9004 40.9 22.4824 40.9 23.2004C40.9 23.9184 41.482 24.5004 42.2 24.5004Z" fill="#57B073"/>
<path d="M45 26.0004C45.718 26.0004 46.3 25.4184 46.3 24.7004C46.3 23.9824 45.718 23.4004 45 23.4004C44.282 23.4004 43.7 23.9824 43.7 24.7004C43.7 25.4184 44.282 26.0004 45 26.0004Z" fill="#57B073"/>
<path d="M47.3 28.1996C48.018 28.1996 48.6 27.6176 48.6 26.8996C48.6 26.1816 48.018 25.5996 47.3 25.5996C46.582 25.5996 46 26.1816 46 26.8996C46 27.6176 46.582 28.1996 47.3 28.1996Z" fill="#57B073"/>
<path d="M49.1 30.8002C49.818 30.8002 50.4 30.2182 50.4 29.5002C50.4 28.7822 49.818 28.2002 49.1 28.2002C48.382 28.2002 47.8 28.7822 47.8 29.5002C47.8 30.2182 48.382 30.8002 49.1 30.8002Z" fill="#57B073"/>
<path d="M50.1 33.8002C50.818 33.8002 51.4 33.2182 51.4 32.5002C51.4 31.7822 50.818 31.2002 50.1 31.2002C49.382 31.2002 48.8 31.7822 48.8 32.5002C48.8 33.2182 49.382 33.8002 50.1 33.8002Z" fill="#57B073"/>
<path d="M39.8 27.1C40.518 27.1 41.1 26.518 41.1 25.8C41.1 25.082 40.518 24.5 39.8 24.5C39.082 24.5 38.5 25.082 38.5 25.8C38.5 26.518 39.082 27.1 39.8 27.1Z" fill="#57B073"/>
<path d="M42.6 28.6996C43.318 28.6996 43.9 28.1176 43.9 27.3996C43.9 26.6816 43.318 26.0996 42.6 26.0996C41.882 26.0996 41.3 26.6816 41.3 27.3996C41.3 28.1176 41.882 28.6996 42.6 28.6996Z" fill="#57B073"/>
<path d="M44.9 30.8998C45.618 30.8998 46.2 30.3178 46.2 29.5998C46.2 28.8819 45.618 28.2998 44.9 28.2998C44.182 28.2998 43.6 28.8819 43.6 29.5998C43.6 30.3178 44.182 30.8998 44.9 30.8998Z" fill="#57B073"/>
<path d="M46.6 33.5004C47.318 33.5004 47.9 32.9184 47.9 32.2004C47.9 31.4824 47.318 30.9004 46.6 30.9004C45.882 30.9004 45.3 31.4824 45.3 32.2004C45.3 32.9184 45.882 33.5004 46.6 33.5004Z" fill="#57B073"/>
<path d="M47.6 36.5004C48.318 36.5004 48.9 35.9184 48.9 35.2004C48.9 34.4824 48.318 33.9004 47.6 33.9004C46.882 33.9004 46.3 34.4824 46.3 35.2004C46.3 35.9184 46.882 36.5004 47.6 36.5004Z" fill="#57B073"/>
<path d="M47.8 39.6996C48.518 39.6996 49.1 39.1176 49.1 38.3996C49.1 37.6816 48.518 37.0996 47.8 37.0996C47.082 37.0996 46.5 37.6816 46.5 38.3996C46.5 39.1176 47.082 39.6996 47.8 39.6996Z" fill="#57B073"/>
<path d="M47.3 42.8002C48.018 42.8002 48.6 42.2182 48.6 41.5002C48.6 40.7822 48.018 40.2002 47.3 40.2002C46.582 40.2002 46 40.7822 46 41.5002C46 42.2182 46.582 42.8002 47.3 42.8002Z" fill="#57B073"/>
<path d="M39.6 30.6C40.318 30.6 40.9 30.018 40.9 29.3C40.9 28.582 40.318 28 39.6 28C38.882 28 38.3 28.582 38.3 29.3C38.3 30.018 38.882 30.6 39.6 30.6Z" fill="#57B073"/>
<path d="M41.9 32.8002C42.618 32.8002 43.2 32.2182 43.2 31.5002C43.2 30.7822 42.618 30.2002 41.9 30.2002C41.182 30.2002 40.6 30.7822 40.6 31.5002C40.6 32.2182 41.182 32.8002 41.9 32.8002Z" fill="#57B073"/>
<path d="M43.5 35.5004C44.218 35.5004 44.8 34.9184 44.8 34.2004C44.8 33.4824 44.218 32.9004 43.5 32.9004C42.782 32.9004 42.2 33.4824 42.2 34.2004C42.2 34.9184 42.782 35.5004 43.5 35.5004Z" fill="#57B073"/>
<path d="M44.5 38.5004C45.218 38.5004 45.8 37.9184 45.8 37.2004C45.8 36.4824 45.218 35.9004 44.5 35.9004C43.782 35.9004 43.2 36.4824 43.2 37.2004C43.2 37.9184 43.782 38.5004 44.5 38.5004Z" fill="#57B073"/>
<path d="M44.6 41.6996C45.318 41.6996 45.9 41.1176 45.9 40.3996C45.9 39.6816 45.318 39.0996 44.6 39.0996C43.882 39.0996 43.3 39.6816 43.3 40.3996C43.3 41.1176 43.882 41.6996 44.6 41.6996Z" fill="#57B073"/>
<path d="M44 44.8002C44.718 44.8002 45.3 44.2182 45.3 43.5002C45.3 42.7822 44.718 42.2002 44 42.2002C43.282 42.2002 42.7 42.7822 42.7 43.5002C42.7 44.2182 43.282 44.8002 44 44.8002Z" fill="#57B073"/>
<path d="M38.5 33.8002C39.218 33.8002 39.8 33.2182 39.8 32.5002C39.8 31.7822 39.218 31.2002 38.5 31.2002C37.782 31.2002 37.2 31.7822 37.2 32.5002C37.2 33.2182 37.782 33.8002 38.5 33.8002Z" fill="#57B073"/>
<path d="M40.1 36.6C40.818 36.6 41.4 36.018 41.4 35.3C41.4 34.582 40.818 34 40.1 34C39.382 34 38.8 34.582 38.8 35.3C38.8 36.018 39.382 36.6 40.1 36.6Z" fill="#57B073"/>
<path d="M41 39.6C41.718 39.6 42.3 39.018 42.3 38.3C42.3 37.582 41.718 37 41 37C40.282 37 39.7 37.582 39.7 38.3C39.7 39.018 40.282 39.6 41 39.6Z" fill="#57B073"/>
<path d="M41.1 42.8002C41.818 42.8002 42.4 42.2182 42.4 41.5002C42.4 40.7822 41.818 40.2002 41.1 40.2002C40.382 40.2002 39.8 40.7822 39.8 41.5002C39.8 42.2182 40.382 42.8002 41.1 42.8002Z" fill="#57B073"/>
<path d="M40.5 45.8998C41.218 45.8998 41.8 45.3178 41.8 44.5998C41.8 43.8819 41.218 43.2998 40.5 43.2998C39.782 43.2998 39.2 43.8819 39.2 44.5998C39.2 45.3178 39.782 45.8998 40.5 45.8998Z" fill="#57B073"/>
<path d="M39.1 48.6996C39.818 48.6996 40.4 48.1176 40.4 47.3996C40.4 46.6816 39.818 46.0996 39.1 46.0996C38.382 46.0996 37.8 46.6816 37.8 47.3996C37.8 48.1176 38.382 48.6996 39.1 48.6996Z" fill="#57B073"/>
<path d="M36.6 36.6996C37.318 36.6996 37.9 36.1176 37.9 35.3996C37.9 34.6816 37.318 34.0996 36.6 34.0996C35.882 34.0996 35.3 34.6816 35.3 35.3996C35.3 36.1176 35.882 36.6996 36.6 36.6996Z" fill="#57B073"/>
<path d="M37.4 39.8002C38.118 39.8002 38.7 39.2182 38.7 38.5002C38.7 37.7822 38.118 37.2002 37.4 37.2002C36.682 37.2002 36.1 37.7822 36.1 38.5002C36.1 39.2182 36.682 39.8002 37.4 39.8002Z" fill="#57B073"/>
<path d="M37.5 42.8998C38.218 42.8998 38.8 42.3178 38.8 41.5998C38.8 40.8819 38.218 40.2998 37.5 40.2998C36.782 40.2998 36.2 40.8819 36.2 41.5998C36.2 42.3178 36.782 42.8998 37.5 42.8998Z" fill="#57B073"/>
<path d="M36.8 46.0004C37.518 46.0004 38.1 45.4184 38.1 44.7004C38.1 43.9824 37.518 43.4004 36.8 43.4004C36.082 43.4004 35.5 43.9824 35.5 44.7004C35.5 45.4184 36.082 46.0004 36.8 46.0004Z" fill="#57B073"/>
<path d="M35.4 48.8002C36.118 48.8002 36.7 48.2182 36.7 47.5002C36.7 46.7822 36.118 46.2002 35.4 46.2002C34.682 46.2002 34.1 46.7822 34.1 47.5002C34.1 48.2182 34.682 48.8002 35.4 48.8002Z" fill="#57B073"/>
<path d="M33.3 51.1996C34.018 51.1996 34.6 50.6176 34.6 49.8996C34.6 49.1816 34.018 48.5996 33.3 48.5996C32.582 48.5996 32 49.1816 32 49.8996C32 50.6176 32.582 51.1996 33.3 51.1996Z" fill="#57B073"/>
<path d="M37 51.1996C37.718 51.1996 38.3 50.6176 38.3 49.8996C38.3 49.1816 37.718 48.5996 37 48.5996C36.282 48.5996 35.7 49.1816 35.7 49.8996C35.7 50.6176 36.282 51.1996 37 51.1996Z" fill="#57B073"/>
<path d="M34 39.0004C34.718 39.0004 35.3 38.4184 35.3 37.7004C35.3 36.9824 34.718 36.4004 34 36.4004C33.282 36.4004 32.7 36.9824 32.7 37.7004C32.7 38.4184 33.282 39.0004 34 39.0004Z" fill="#57B073"/>
<path d="M34 42.1C34.718 42.1 35.3 41.518 35.3 40.8C35.3 40.082 34.718 39.5 34 39.5C33.282 39.5 32.7 40.082 32.7 40.8C32.7 41.518 33.282 42.1 34 42.1Z" fill="#57B073"/>
<path d="M33.2 45.1996C33.918 45.1996 34.5 44.6176 34.5 43.8996C34.5 43.1816 33.918 42.5996 33.2 42.5996C32.482 42.5996 31.9 43.1816 31.9 43.8996C31.9 44.6176 32.482 45.1996 33.2 45.1996Z" fill="#57B073"/>
<path d="M31.8 48.0004C32.518 48.0004 33.1 47.4184 33.1 46.7004C33.1 45.9824 32.518 45.4004 31.8 45.4004C31.082 45.4004 30.5 45.9824 30.5 46.7004C30.5 47.4184 31.082 48.0004 31.8 48.0004Z" fill="#57B073"/>
<path d="M29.7 50.3998C30.418 50.3998 31 49.8178 31 49.0998C31 48.3819 30.418 47.7998 29.7 47.7998C28.982 47.7998 28.4 48.3819 28.4 49.0998C28.4 49.8178 28.982 50.3998 29.7 50.3998Z" fill="#57B073"/>
<path d="M27 52.1996C27.718 52.1996 28.3 51.6176 28.3 50.8996C28.3 50.1816 27.718 49.5996 27 49.5996C26.282 49.5996 25.7 50.1816 25.7 50.8996C25.7 51.6176 26.282 52.1996 27 52.1996Z" fill="#57B073"/>
<path d="M24.1 53.3002C24.818 53.3002 25.4 52.7182 25.4 52.0002C25.4 51.2822 24.818 50.7002 24.1 50.7002C23.382 50.7002 22.8 51.2822 22.8 52.0002C22.8 52.7182 23.382 53.3002 24.1 53.3002Z" fill="#57B073"/>
<path d="M30.9 40.5004C31.618 40.5004 32.2 39.9184 32.2 39.2004C32.2 38.4824 31.618 37.9004 30.9 37.9004C30.182 37.9004 29.6 38.4824 29.6 39.2004C29.6 39.9184 30.182 40.5004 30.9 40.5004Z" fill="#57B073"/>
<path d="M30.1 43.6C30.818 43.6 31.4 43.018 31.4 42.3C31.4 41.582 30.818 41 30.1 41C29.382 41 28.8 41.582 28.8 42.3C28.8 43.018 29.382 43.6 30.1 43.6Z" fill="#57B073"/>
<path d="M28.5 46.3998C29.218 46.3998 29.8 45.8178 29.8 45.0998C29.8 44.3819 29.218 43.7998 28.5 43.7998C27.782 43.7998 27.2 44.3819 27.2 45.0998C27.2 45.8178 27.782 46.3998 28.5 46.3998Z" fill="#57B073"/>
<path d="M26.4 48.6996C27.118 48.6996 27.7 48.1176 27.7 47.3996C27.7 46.6816 27.118 46.0996 26.4 46.0996C25.682 46.0996 25.1 46.6816 25.1 47.3996C25.1 48.1176 25.682 48.6996 26.4 48.6996Z" fill="#57B073"/>
<path d="M23.7 50.3998C24.418 50.3998 25 49.8178 25 49.0998C25 48.3819 24.418 47.7998 23.7 47.7998C22.982 47.7998 22.4 48.3819 22.4 49.0998C22.4 49.8178 22.982 50.3998 23.7 50.3998Z" fill="#57B073"/>
<path d="M20.8 51.5004C21.518 51.5004 22.1 50.9184 22.1 50.2004C22.1 49.4824 21.518 48.9004 20.8 48.9004C20.082 48.9004 19.5 49.4824 19.5 50.2004C19.5 50.9184 20.082 51.5004 20.8 51.5004Z" fill="#57B073"/>
<path d="M27.5 41.1996C28.218 41.1996 28.8 40.6176 28.8 39.8996C28.8 39.1816 28.218 38.5996 27.5 38.5996C26.782 38.5996 26.2 39.1816 26.2 39.8996C26.2 40.6176 26.782 41.1996 27.5 41.1996Z" fill="#57B073"/>
<path d="M25.9 43.8998C26.618 43.8998 27.2 43.3178 27.2 42.5998C27.2 41.8819 26.618 41.2998 25.9 41.2998C25.182 41.2998 24.6 41.8819 24.6 42.5998C24.6 43.3178 25.182 43.8998 25.9 43.8998Z" fill="#57B073"/>
<path d="M23.7 46.1996C24.418 46.1996 25 45.6176 25 44.8996C25 44.1816 24.418 43.5996 23.7 43.5996C22.982 43.5996 22.4 44.1816 22.4 44.8996C22.4 45.6176 22.982 46.1996 23.7 46.1996Z" fill="#57B073"/>
<path d="M21 47.8998C21.718 47.8998 22.3 47.3178 22.3 46.5998C22.3 45.8819 21.718 45.2998 21 45.2998C20.282 45.2998 19.7 45.8819 19.7 46.5998C19.7 47.3178 20.282 47.8998 21 47.8998Z" fill="#57B073"/>
<path d="M18 48.8998C18.718 48.8998 19.3 48.3178 19.3 47.5998C19.3 46.8819 18.718 46.2998 18 46.2998C17.282 46.2998 16.7 46.8819 16.7 47.5998C16.7 48.3178 17.282 48.8998 18 48.8998Z" fill="#57B073"/>
<path d="M14.9 49.1C15.618 49.1 16.2 48.518 16.2 47.8C16.2 47.082 15.618 46.5 14.9 46.5C14.182 46.5 13.6 47.082 13.6 47.8C13.6 48.518 14.182 49.1 14.9 49.1Z" fill="#57B073"/>
<path d="M11.7 48.6C12.418 48.6 13 48.018 13 47.3C13 46.582 12.418 46 11.7 46C10.982 46 10.4 46.582 10.4 47.3C10.4 48.018 10.982 48.6 11.7 48.6Z" fill="#57B073"/>
<path d="M24 40.8998C24.718 40.8998 25.3 40.3178 25.3 39.5998C25.3 38.8819 24.718 38.2998 24 38.2998C23.282 38.2998 22.7 38.8819 22.7 39.5998C22.7 40.3178 23.282 40.8998 24 40.8998Z" fill="#57B073"/>
<path d="M21.8 43.1996C22.518 43.1996 23.1 42.6176 23.1 41.8996C23.1 41.1816 22.518 40.5996 21.8 40.5996C21.082 40.5996 20.5 41.1816 20.5 41.8996C20.5 42.6176 21.082 43.1996 21.8 43.1996Z" fill="#57B073"/>
<path d="M19.1 44.8998C19.818 44.8998 20.4 44.3178 20.4 43.5998C20.4 42.8819 19.818 42.2998 19.1 42.2998C18.382 42.2998 17.8 42.8819 17.8 43.5998C17.8 44.3178 18.382 44.8998 19.1 44.8998Z" fill="#57B073"/>
<path d="M16.1 45.8002C16.818 45.8002 17.4 45.2182 17.4 44.5002C17.4 43.7822 16.818 43.2002 16.1 43.2002C15.382 43.2002 14.8 43.7822 14.8 44.5002C14.8 45.2182 15.382 45.8002 16.1 45.8002Z" fill="#57B073"/>
<path d="M12.9 46.0004C13.618 46.0004 14.2 45.4184 14.2 44.7004C14.2 43.9824 13.618 43.4004 12.9 43.4004C12.182 43.4004 11.6 43.9824 11.6 44.7004C11.6 45.4184 12.182 46.0004 12.9 46.0004Z" fill="#57B073"/>
<path d="M9.8 45.3998C10.518 45.3998 11.1 44.8178 11.1 44.0998C11.1 43.3819 10.518 42.7998 9.8 42.7998C9.08203 42.7998 8.5 43.3819 8.5 44.0998C8.5 44.8178 9.08203 45.3998 9.8 45.3998Z" fill="#57B073"/>
<path d="M20.7 39.8002C21.418 39.8002 22 39.2182 22 38.5002C22 37.7822 21.418 37.2002 20.7 37.2002C19.982 37.2002 19.4 37.7822 19.4 38.5002C19.4 39.2182 19.982 39.8002 20.7 39.8002Z" fill="#57B073"/>
<path d="M18 41.3998C18.718 41.3998 19.3 40.8178 19.3 40.0998C19.3 39.3819 18.718 38.7998 18 38.7998C17.282 38.7998 16.7 39.3819 16.7 40.0998C16.7 40.8178 17.282 41.3998 18 41.3998Z" fill="#57B073"/>
<path d="M15 42.3002C15.718 42.3002 16.3 41.7182 16.3 41.0002C16.3 40.2822 15.718 39.7002 15 39.7002C14.282 39.7002 13.7 40.2822 13.7 41.0002C13.7 41.7182 14.282 42.3002 15 42.3002Z" fill="#57B073"/>
<path d="M11.8 42.5004C12.518 42.5004 13.1 41.9184 13.1 41.2004C13.1 40.4824 12.518 39.9004 11.8 39.9004C11.082 39.9004 10.5 40.4824 10.5 41.2004C10.5 41.9184 11.082 42.5004 11.8 42.5004Z" fill="#57B073"/>
<path d="M8.7 41.8002C9.41797 41.8002 10 41.2182 10 40.5002C10 39.7822 9.41797 39.2002 8.7 39.2002C7.98203 39.2002 7.4 39.7822 7.4 40.5002C7.4 41.2182 7.98203 41.8002 8.7 41.8002Z" fill="#57B073"/>
<path d="M5.8 40.3998C6.51797 40.3998 7.1 39.8178 7.1 39.0998C7.1 38.3819 6.51797 37.7998 5.8 37.7998C5.08203 37.7998 4.5 38.3819 4.5 39.0998C4.5 39.8178 5.08203 40.3998 5.8 40.3998Z" fill="#57B073"/>
<path d="M3.4 38.3998C4.11797 38.3998 4.7 37.8178 4.7 37.0998C4.7 36.3819 4.11797 35.7998 3.4 35.7998C2.68203 35.7998 2.1 36.3819 2.1 37.0998C2.1 37.8178 2.68203 38.3998 3.4 38.3998Z" fill="#57B073"/>
<path d="M17.9 37.8998C18.618 37.8998 19.2 37.3178 19.2 36.5998C19.2 35.8819 18.618 35.2998 17.9 35.2998C17.182 35.2998 16.6 35.8819 16.6 36.5998C16.6 37.3178 17.182 37.8998 17.9 37.8998Z" fill="#57B073"/>
<path d="M14.8 38.8002C15.518 38.8002 16.1 38.2182 16.1 37.5002C16.1 36.7822 15.518 36.2002 14.8 36.2002C14.082 36.2002 13.5 36.7822 13.5 37.5002C13.5 38.2182 14.082 38.8002 14.8 38.8002Z" fill="#57B073"/>
<path d="M11.6 38.8002C12.318 38.8002 12.9 38.2182 12.9 37.5002C12.9 36.7822 12.318 36.2002 11.6 36.2002C10.882 36.2002 10.3 36.7822 10.3 37.5002C10.3 38.2182 10.882 38.8002 11.6 38.8002Z" fill="#57B073"/>
<path d="M8.6 38.1C9.31797 38.1 9.9 37.518 9.9 36.8C9.9 36.082 9.31797 35.5 8.6 35.5C7.88203 35.5 7.3 36.082 7.3 36.8C7.3 37.518 7.88203 38.1 8.6 38.1Z" fill="#57B073"/>
<path d="M5.7 36.6996C6.41797 36.6996 7 36.1176 7 35.3996C7 34.6816 6.41797 34.0996 5.7 34.0996C4.98203 34.0996 4.4 34.6816 4.4 35.3996C4.4 36.1176 4.98203 36.6996 5.7 36.6996Z" fill="#57B073"/>
<path d="M3.3 34.6C4.01797 34.6 4.6 34.018 4.6 33.3C4.6 32.582 4.01797 32 3.3 32C2.58203 32 2 32.582 2 33.3C2 34.018 2.58203 34.6 3.3 34.6Z" fill="#57B073"/>
<path d="M15.6 35.3002C16.318 35.3002 16.9 34.7182 16.9 34.0002C16.9 33.2822 16.318 32.7002 15.6 32.7002C14.882 32.7002 14.3 33.2822 14.3 34.0002C14.3 34.7182 14.882 35.3002 15.6 35.3002Z" fill="#57B073"/>
<path d="M12.4 35.3002C13.118 35.3002 13.7 34.7182 13.7 34.0002C13.7 33.2822 13.118 32.7002 12.4 32.7002C11.682 32.7002 11.1 33.2822 11.1 34.0002C11.1 34.7182 11.682 35.3002 12.4 35.3002Z" fill="#57B073"/>
<path d="M9.3 34.6C10.018 34.6 10.6 34.018 10.6 33.3C10.6 32.582 10.018 32 9.3 32C8.58203 32 8 32.582 8 33.3C8 34.018 8.58203 34.6 9.3 34.6Z" fill="#57B073"/>
<path d="M6.5 33.1C7.21797 33.1 7.8 32.518 7.8 31.8C7.8 31.082 7.21797 30.5 6.5 30.5C5.78203 30.5 5.2 31.082 5.2 31.8C5.2 32.518 5.78203 33.1 6.5 33.1Z" fill="#57B073"/>
<path d="M4.2 31.0004C4.91797 31.0004 5.5 30.4184 5.5 29.7004C5.5 28.9824 4.91797 28.4004 4.2 28.4004C3.48203 28.4004 2.9 28.9824 2.9 29.7004C2.9 30.4184 3.48203 31.0004 4.2 31.0004Z" fill="#57B073"/>
<path d="M2.4 28.3998C3.11797 28.3998 3.7 27.8178 3.7 27.0998C3.7 26.3819 3.11797 25.7998 2.4 25.7998C1.68203 25.7998 1.1 26.3819 1.1 27.0998C1.1 27.8178 1.68203 28.3998 2.4 28.3998Z" fill="#57B073"/>
<path d="M1.3 25.3998C2.01797 25.3998 2.6 24.8178 2.6 24.0998C2.6 23.3819 2.01797 22.7998 1.3 22.7998C0.582025 22.7998 0 23.3819 0 24.0998C0 24.8178 0.582025 25.3998 1.3 25.3998Z" fill="#57B073"/>
<path d="M14.1 32.1996C14.818 32.1996 15.4 31.6176 15.4 30.8996C15.4 30.1816 14.818 29.5996 14.1 29.5996C13.382 29.5996 12.8 30.1816 12.8 30.8996C12.8 31.6176 13.382 32.1996 14.1 32.1996Z" fill="#57B073"/>
<path d="M11 31.3998C11.718 31.3998 12.3 30.8178 12.3 30.0998C12.3 29.3819 11.718 28.7998 11 28.7998C10.282 28.7998 9.7 29.3819 9.7 30.0998C9.7 30.8178 10.282 31.3998 11 31.3998Z" fill="#57B073"/>
<path d="M8.2 29.8998C8.91797 29.8998 9.5 29.3178 9.5 28.5998C9.5 27.8819 8.91797 27.2998 8.2 27.2998C7.48203 27.2998 6.9 27.8819 6.9 28.5998C6.9 29.3178 7.48203 29.8998 8.2 29.8998Z" fill="#57B073"/>
<path d="M5.9 27.6996C6.61797 27.6996 7.2 27.1176 7.2 26.3996C7.2 25.6816 6.61797 25.0996 5.9 25.0996C5.18203 25.0996 4.6 25.6816 4.6 26.3996C4.6 27.1176 5.18203 27.6996 5.9 27.6996Z" fill="#57B073"/>
<path d="M4.2 25.1C4.91797 25.1 5.5 24.518 5.5 23.8C5.5 23.082 4.91797 22.5 4.2 22.5C3.48203 22.5 2.9 23.082 2.9 23.8C2.9 24.518 3.48203 25.1 4.2 25.1Z" fill="#57B073"/>
<path d="M3.1 22.1C3.81797 22.1 4.4 21.518 4.4 20.8C4.4 20.082 3.81797 19.5 3.1 19.5C2.38203 19.5 1.8 20.082 1.8 20.8C1.8 21.518 2.38203 22.1 3.1 22.1Z" fill="#57B073"/>
<path d="M13.4 28.8002C14.118 28.8002 14.7 28.2182 14.7 27.5002C14.7 26.7822 14.118 26.2002 13.4 26.2002C12.682 26.2002 12.1 26.7822 12.1 27.5002C12.1 28.2182 12.682 28.8002 13.4 28.8002Z" fill="#57B073"/>
<path d="M10.6 27.1996C11.318 27.1996 11.9 26.6176 11.9 25.8996C11.9 25.1816 11.318 24.5996 10.6 24.5996C9.88203 24.5996 9.3 25.1816 9.3 25.8996C9.3 26.6176 9.88203 27.1996 10.6 27.1996Z" fill="#57B073"/>
<path d="M8.3 25.1C9.01797 25.1 9.6 24.518 9.6 23.8C9.6 23.082 9.01797 22.5 8.3 22.5C7.58203 22.5 7 23.082 7 23.8C7 24.518 7.58203 25.1 8.3 25.1Z" fill="#57B073"/>
<path d="M6.7 22.3998C7.41797 22.3998 8 21.8178 8 21.0998C8 20.3819 7.41797 19.7998 6.7 19.7998C5.98203 19.7998 5.4 20.3819 5.4 21.0998C5.4 21.8178 5.98203 22.3998 6.7 22.3998Z" fill="#57B073"/>
<path d="M5.7 19.3998C6.41797 19.3998 7 18.8178 7 18.0998C7 17.3819 6.41797 16.7998 5.7 16.7998C4.98203 16.7998 4.4 17.3819 4.4 18.0998C4.4 18.8178 4.98203 19.3998 5.7 19.3998Z" fill="#57B073"/>
<path d="M5.4 16.1996C6.11797 16.1996 6.7 15.6176 6.7 14.8996C6.7 14.1816 6.11797 13.5996 5.4 13.5996C4.68203 13.5996 4.1 14.1816 4.1 14.8996C4.1 15.6176 4.68203 16.1996 5.4 16.1996Z" fill="#57B073"/>
<path d="M6 13.1C6.71797 13.1 7.3 12.518 7.3 11.8C7.3 11.082 6.71797 10.5 6 10.5C5.28203 10.5 4.7 11.082 4.7 11.8C4.7 12.518 5.28203 13.1 6 13.1Z" fill="#57B073"/>
<path d="M13.6 25.3998C14.318 25.3998 14.9 24.8178 14.9 24.0998C14.9 23.3819 14.318 22.7998 13.6 22.7998C12.882 22.7998 12.3 23.3819 12.3 24.0998C12.3 24.8178 12.882 25.3998 13.6 25.3998Z" fill="#57B073"/>
<path d="M11.4 23.1C12.118 23.1 12.7 22.518 12.7 21.8C12.7 21.082 12.118 20.5 11.4 20.5C10.682 20.5 10.1 21.082 10.1 21.8C10.1 22.518 10.682 23.1 11.4 23.1Z" fill="#57B073"/>
<path d="M9.7 20.3998C10.418 20.3998 11 19.8178 11 19.0998C11 18.3819 10.418 17.7998 9.7 17.7998C8.98203 17.7998 8.4 18.3819 8.4 19.0998C8.4 19.8178 8.98203 20.3998 9.7 20.3998Z" fill="#57B073"/>
<path d="M8.8 17.3998C9.51797 17.3998 10.1 16.8178 10.1 16.0998C10.1 15.3819 9.51797 14.7998 8.8 14.7998C8.08203 14.7998 7.5 15.3819 7.5 16.0998C7.5 16.8178 8.08203 17.3998 8.8 17.3998Z" fill="#57B073"/>
<path d="M8.6 14.1996C9.31797 14.1996 9.9 13.6176 9.9 12.8996C9.9 12.1816 9.31797 11.5996 8.6 11.5996C7.88203 11.5996 7.3 12.1816 7.3 12.8996C7.3 13.6176 7.88203 14.1996 8.6 14.1996Z" fill="#57B073"/>
<path d="M9.2 11.1C9.91797 11.1 10.5 10.518 10.5 9.79999C10.5 9.08202 9.91797 8.5 9.2 8.5C8.48203 8.5 7.9 9.08202 7.9 9.79999C7.9 10.518 8.48203 11.1 9.2 11.1Z" fill="#57B073"/>
<path d="M14.7 22.1C15.418 22.1 16 21.518 16 20.8C16 20.082 15.418 19.5 14.7 19.5C13.982 19.5 13.4 20.082 13.4 20.8C13.4 21.518 13.982 22.1 14.7 22.1Z" fill="#57B073"/>
<path d="M13.1 19.3998C13.818 19.3998 14.4 18.8178 14.4 18.0998C14.4 17.3819 13.818 16.7998 13.1 16.7998C12.382 16.7998 11.8 17.3819 11.8 18.0998C11.8 18.8178 12.382 19.3998 13.1 19.3998Z" fill="#57B073"/>
<path d="M12.2 16.3002C12.918 16.3002 13.5 15.7182 13.5 15.0002C13.5 14.2822 12.918 13.7002 12.2 13.7002C11.482 13.7002 10.9 14.2822 10.9 15.0002C10.9 15.7182 11.482 16.3002 12.2 16.3002Z" fill="#57B073"/>
<path d="M12.1 13.1996C12.818 13.1996 13.4 12.6176 13.4 11.8996C13.4 11.1816 12.818 10.5996 12.1 10.5996C11.382 10.5996 10.8 11.1816 10.8 11.8996C10.8 12.6176 11.382 13.1996 12.1 13.1996Z" fill="#57B073"/>
<path d="M12.8 10.0004C13.518 10.0004 14.1 9.41838 14.1 8.70041C14.1 7.98244 13.518 7.40039 12.8 7.40039C12.082 7.40039 11.5 7.98244 11.5 8.70041C11.5 9.41838 12.082 10.0004 12.8 10.0004Z" fill="#57B073"/>
<path d="M14.1 7.19962C14.818 7.19962 15.4 6.61757 15.4 5.8996C15.4 5.18163 14.818 4.59961 14.1 4.59961C13.382 4.59961 12.8 5.18163 12.8 5.8996C12.8 6.61757 13.382 7.19962 14.1 7.19962Z" fill="#57B073"/>
<path d="M16.2 4.80017C16.918 4.80017 17.5 4.21815 17.5 3.50018C17.5 2.78221 16.918 2.2002 16.2 2.2002C15.482 2.2002 14.9 2.78221 14.9 3.50018C14.9 4.21815 15.482 4.80017 16.2 4.80017Z" fill="#57B073"/>
<path d="M16.7 19.1996C17.418 19.1996 18 18.6176 18 17.8996C18 17.1816 17.418 16.5996 16.7 16.5996C15.982 16.5996 15.4 17.1816 15.4 17.8996C15.4 18.6176 15.982 19.1996 16.7 19.1996Z" fill="#57B073"/>
<path d="M15.8 16.1996C16.518 16.1996 17.1 15.6176 17.1 14.8996C17.1 14.1816 16.518 13.5996 15.8 13.5996C15.082 13.5996 14.5 14.1816 14.5 14.8996C14.5 15.6176 15.082 16.1996 15.8 16.1996Z" fill="#57B073"/>
<path d="M15.7 13.0004C16.418 13.0004 17 12.4184 17 11.7004C17 10.9824 16.418 10.4004 15.7 10.4004C14.982 10.4004 14.4 10.9824 14.4 11.7004C14.4 12.4184 14.982 13.0004 15.7 13.0004Z" fill="#57B073"/>
<path d="M16.4 9.89981C17.118 9.89981 17.7 9.31779 17.7 8.59982C17.7 7.88185 17.118 7.2998 16.4 7.2998C15.682 7.2998 15.1 7.88185 15.1 8.59982C15.1 9.31779 15.682 9.89981 16.4 9.89981Z" fill="#57B073"/>
<path d="M17.9 7.10001C18.618 7.10001 19.2 6.51796 19.2 5.79999C19.2 5.08202 18.618 4.5 17.9 4.5C17.182 4.5 16.6 5.08202 16.6 5.79999C16.6 6.51796 17.182 7.10001 17.9 7.10001Z" fill="#57B073"/>
<path d="M19.9 4.69962C20.618 4.69962 21.2 4.11757 21.2 3.3996C21.2 2.68163 20.618 2.09961 19.9 2.09961C19.182 2.09961 18.6 2.68163 18.6 3.3996C18.6 4.11757 19.182 4.69962 19.9 4.69962Z" fill="#57B073"/>
<path d="M19.3 16.8998C20.018 16.8998 20.6 16.3178 20.6 15.5998C20.6 14.8819 20.018 14.2998 19.3 14.2998C18.582 14.2998 18 14.8819 18 15.5998C18 16.3178 18.582 16.8998 19.3 16.8998Z" fill="#57B073"/>
<path d="M19.2 13.8002C19.918 13.8002 20.5 13.2182 20.5 12.5002C20.5 11.7822 19.918 11.2002 19.2 11.2002C18.482 11.2002 17.9 11.7822 17.9 12.5002C17.9 13.2182 18.482 13.8002 19.2 13.8002Z" fill="#57B073"/>
<path d="M20 10.6996C20.718 10.6996 21.3 10.1176 21.3 9.3996C21.3 8.68163 20.718 8.09961 20 8.09961C19.282 8.09961 18.7 8.68163 18.7 9.3996C18.7 10.1176 19.282 10.6996 20 10.6996Z" fill="#57B073"/>
<path d="M21.5 7.89981C22.218 7.89981 22.8 7.31779 22.8 6.59982C22.8 5.88185 22.218 5.2998 21.5 5.2998C20.782 5.2998 20.2 5.88185 20.2 6.59982C20.2 7.31779 20.782 7.89981 21.5 7.89981Z" fill="#57B073"/>
<path d="M23.6 5.5004C24.318 5.5004 24.9 4.91838 24.9 4.20041C24.9 3.48244 24.318 2.90039 23.6 2.90039C22.882 2.90039 22.3 3.48244 22.3 4.20041C22.3 4.91838 22.882 5.5004 23.6 5.5004Z" fill="#57B073"/>
<path d="M26.2 3.69962C26.918 3.69962 27.5 3.11757 27.5 2.3996C27.5 1.68163 26.918 1.09961 26.2 1.09961C25.482 1.09961 24.9 1.68163 24.9 2.3996C24.9 3.11757 25.482 3.69962 26.2 3.69962Z" fill="#57B073"/>
<path d="M29.2 2.60001C29.918 2.60001 30.5 2.01796 30.5 1.29999C30.5 0.582018 29.918 0 29.2 0C28.482 0 27.9 0.582018 27.9 1.29999C27.9 2.01796 28.482 2.60001 29.2 2.60001Z" fill="#57B073"/>
<path d="M22.4 15.3998C23.118 15.3998 23.7 14.8178 23.7 14.0998C23.7 13.3819 23.118 12.7998 22.4 12.7998C21.682 12.7998 21.1 13.3819 21.1 14.0998C21.1 14.8178 21.682 15.3998 22.4 15.3998Z" fill="#57B073"/>
<path d="M23.2 12.3002C23.918 12.3002 24.5 11.7182 24.5 11.0002C24.5 10.2822 23.918 9.7002 23.2 9.7002C22.482 9.7002 21.9 10.2822 21.9 11.0002C21.9 11.7182 22.482 12.3002 23.2 12.3002Z" fill="#57B073"/>
<path d="M24.7 9.60001C25.418 9.60001 26 9.01796 26 8.29999C26 7.58202 25.418 7 24.7 7C23.982 7 23.4 7.58202 23.4 8.29999C23.4 9.01796 23.982 9.60001 24.7 9.60001Z" fill="#57B073"/>
<path d="M26.8 7.19962C27.518 7.19962 28.1 6.61757 28.1 5.8996C28.1 5.18163 27.518 4.59961 26.8 4.59961C26.082 4.59961 25.5 5.18163 25.5 5.8996C25.5 6.61757 26.082 7.19962 26.8 7.19962Z" fill="#57B073"/>
<path d="M29.5 5.5004C30.218 5.5004 30.8 4.91838 30.8 4.20041C30.8 3.48244 30.218 2.90039 29.5 2.90039C28.782 2.90039 28.2 3.48244 28.2 4.20041C28.2 4.91838 28.782 5.5004 29.5 5.5004Z" fill="#57B073"/>
<path d="M32.5 4.5004C33.218 4.5004 33.8 3.91838 33.8 3.20041C33.8 2.48244 33.218 1.90039 32.5 1.90039C31.782 1.90039 31.2 2.48244 31.2 3.20041C31.2 3.91838 31.782 4.5004 32.5 4.5004Z" fill="#57B073"/>
<path d="M25.8 14.6996C26.518 14.6996 27.1 14.1176 27.1 13.3996C27.1 12.6816 26.518 12.0996 25.8 12.0996C25.082 12.0996 24.5 12.6816 24.5 13.3996C24.5 14.1176 25.082 14.6996 25.8 14.6996Z" fill="#57B073"/>
<path d="M27.3 12.0004C28.018 12.0004 28.6 11.4184 28.6 10.7004C28.6 9.98244 28.018 9.40039 27.3 9.40039C26.582 9.40039 26 9.98244 26 10.7004C26 11.4184 26.582 12.0004 27.3 12.0004Z" fill="#57B073"/>
<path d="M29.5 9.69962C30.218 9.69962 30.8 9.11757 30.8 8.3996C30.8 7.68163 30.218 7.09961 29.5 7.09961C28.782 7.09961 28.2 7.68163 28.2 8.3996C28.2 9.11757 28.782 9.69962 29.5 9.69962Z" fill="#57B073"/>
<path d="M32.2 8.0004C32.918 8.0004 33.5 7.41838 33.5 6.70041C33.5 5.98244 32.918 5.40039 32.2 5.40039C31.482 5.40039 30.9 5.98244 30.9 6.70041C30.9 7.41838 31.482 8.0004 32.2 8.0004Z" fill="#57B073"/>
<path d="M35.2 7.0004C35.918 7.0004 36.5 6.41838 36.5 5.70041C36.5 4.98244 35.918 4.40039 35.2 4.40039C34.482 4.40039 33.9 4.98244 33.9 5.70041C33.9 6.41838 34.482 7.0004 35.2 7.0004Z" fill="#57B073"/>
<path d="M38.4 6.80017C39.118 6.80017 39.7 6.21815 39.7 5.50018C39.7 4.78221 39.118 4.2002 38.4 4.2002C37.682 4.2002 37.1 4.78221 37.1 5.50018C37.1 6.21815 37.682 6.80017 38.4 6.80017Z" fill="#57B073"/>
<path d="M41.5 7.30017C42.218 7.30017 42.8 6.71815 42.8 6.00018C42.8 5.28221 42.218 4.7002 41.5 4.7002C40.782 4.7002 40.2 5.28221 40.2 6.00018C40.2 6.71815 40.782 7.30017 41.5 7.30017Z" fill="#57B073"/>
<path d="M29.2 15.0004C29.918 15.0004 30.5 14.4184 30.5 13.7004C30.5 12.9824 29.918 12.4004 29.2 12.4004C28.482 12.4004 27.9 12.9824 27.9 13.7004C27.9 14.4184 28.482 15.0004 29.2 15.0004Z" fill="#57B073"/>
<path d="M31.4 12.6996C32.118 12.6996 32.7 12.1176 32.7 11.3996C32.7 10.6816 32.118 10.0996 31.4 10.0996C30.682 10.0996 30.1 10.6816 30.1 11.3996C30.1 12.1176 30.682 12.6996 31.4 12.6996Z" fill="#57B073"/>
<path d="M34.1 11.1C34.818 11.1 35.4 10.518 35.4 9.79999C35.4 9.08202 34.818 8.5 34.1 8.5C33.382 8.5 32.8 9.08202 32.8 9.79999C32.8 10.518 33.382 11.1 34.1 11.1Z" fill="#57B073"/>
<path d="M37.2 10.1C37.918 10.1 38.5 9.51796 38.5 8.79999C38.5 8.08202 37.918 7.5 37.2 7.5C36.482 7.5 35.9 8.08202 35.9 8.79999C35.9 9.51796 36.482 10.1 37.2 10.1Z" fill="#57B073"/>
<path d="M40.3 9.89981C41.018 9.89981 41.6 9.31779 41.6 8.59982C41.6 7.88185 41.018 7.2998 40.3 7.2998C39.582 7.2998 39 7.88185 39 8.59982C39 9.31779 39.582 9.89981 40.3 9.89981Z" fill="#57B073"/>
<path d="M43.4 10.5004C44.118 10.5004 44.7 9.91838 44.7 9.20041C44.7 8.48244 44.118 7.90039 43.4 7.90039C42.682 7.90039 42.1 8.48244 42.1 9.20041C42.1 9.91838 42.682 10.5004 43.4 10.5004Z" fill="#57B073"/>
<path d="M32.5 16.1C33.218 16.1 33.8 15.518 33.8 14.8C33.8 14.082 33.218 13.5 32.5 13.5C31.782 13.5 31.2 14.082 31.2 14.8C31.2 15.518 31.782 16.1 32.5 16.1Z" fill="#57B073"/>
<path d="M35.2 14.5004C35.918 14.5004 36.5 13.9184 36.5 13.2004C36.5 12.4824 35.918 11.9004 35.2 11.9004C34.482 11.9004 33.9 12.4824 33.9 13.2004C33.9 13.9184 34.482 14.5004 35.2 14.5004Z" fill="#57B073"/>
<path d="M38.3 13.6C39.018 13.6 39.6 13.018 39.6 12.3C39.6 11.582 39.018 11 38.3 11C37.582 11 37 11.582 37 12.3C37 13.018 37.582 13.6 38.3 13.6Z" fill="#57B073"/>
<path d="M41.4 13.5004C42.118 13.5004 42.7 12.9184 42.7 12.2004C42.7 11.4824 42.118 10.9004 41.4 10.9004C40.682 10.9004 40.1 11.4824 40.1 12.2004C40.1 12.9184 40.682 13.5004 41.4 13.5004Z" fill="#57B073"/>
<path d="M44.5 14.1C45.218 14.1 45.8 13.518 45.8 12.8C45.8 12.082 45.218 11.5 44.5 11.5C43.782 11.5 43.2 12.082 43.2 12.8C43.2 13.518 43.782 14.1 44.5 14.1Z" fill="#57B073"/>
<path d="M47.4 15.5004C48.118 15.5004 48.7 14.9184 48.7 14.2004C48.7 13.4824 48.118 12.9004 47.4 12.9004C46.682 12.9004 46.1 13.4824 46.1 14.2004C46.1 14.9184 46.682 15.5004 47.4 15.5004Z" fill="#57B073"/>
<path d="M49.8 17.5004C50.518 17.5004 51.1 16.9184 51.1 16.2004C51.1 15.4824 50.518 14.9004 49.8 14.9004C49.082 14.9004 48.5 15.4824 48.5 16.2004C48.5 16.9184 49.082 17.5004 49.8 17.5004Z" fill="#57B073"/>
</svg>
